<?xml version="1.0" encoding="UTF-8"?>
<svg viewBox="80 50 128 128" version="1.1" xmlns="http://www.w3.org/2000/svg" xmlns:xlink="http://www.w3.org/1999/xlink">
  <!-- Generator: Sketch 52.6 (67491) - http://www.bohemiancoding.com/sketch -->
  <title>Vue</title>
  <desc>Created with Sketch.</desc>
  <g id="KV" stroke="none" stroke-width="1" fill="none" fill-rule="evenodd">
    <g id="Group" transform="translate(0, 0)">
      <path style="fill-rule:evenodd;clip-rule:evenodd;fill:#2AB2B6;" d="M118.236,62.625L118.236,62.625
        c9.131,0,16.601,7.47,16.601,16.6v67.959c0,9.13-7.47,16.6-16.6,16.6h-0.001c-9.131,0-16.6-7.47-16.6-16.6V79.225
        C101.636,70.095,109.106,62.625,118.236,62.625z"></path>
      <path style="fill-rule:evenodd;clip-rule:evenodd;fill:#DC2667;" d="M184.346,70.924L184.346,70.924
        c4.565,7.908,1.831,18.112-6.076,22.677l-33.954,19.603l33.954,19.603c7.907,4.565,10.641,14.769,6.076,22.676l0,0
        c-4.565,7.908-14.769,10.642-22.676,6.076l-58.854-33.979c-1.29-0.745-2.441-1.641-3.447-2.651l-0.153-0.154l-0.022-0.023
        c-0.93-0.958-1.757-2.042-2.453-3.247l0,0c-1.508-2.611-2.219-5.473-2.211-8.3c-0.008-2.827,0.703-5.688,2.211-8.3l0,0
        c0.695-1.206,1.523-2.29,2.453-3.247l0.022-0.023l0.153-0.155c1.006-1.01,2.157-1.907,3.447-2.652l58.854-33.979
        C169.577,60.283,179.781,63.017,184.346,70.924z"></path>
      <path style="fill-rule:evenodd;clip-rule:evenodd;fill:#AC4082;" d="M134.837,146.067l-32.021-18.487
        c-0.407-0.235-0.8-0.485-1.18-0.749V99.577c0.379-0.264,0.773-0.514,1.18-0.75l32.021-18.486V146.067z"></path>
    </g>
  </g>
</svg>
